<?xml version="1.0" encoding="UTF-8"?>
<svg id="Layer_1" data-name="Layer 1" xmlns="http://www.w3.org/2000/svg" viewBox="0 0 544.85 246.58">
  <defs>
    <style>
      .cls-1 {
        fill: #fee589;
        stroke: #000;
      }

      .cls-1, .cls-2 {
        stroke-width: 2px;
      }

      .cls-1, .cls-3 {
        stroke-miterlimit: 10;
      }

      .cls-2 {
        fill: #f26869;
        stroke-linecap: round;
        stroke-linejoin: round;
      }

      .cls-2, .cls-3 {
        stroke: #231f20;
      }

      .cls-3 {
        fill: none;
        stroke-width: 4px;
      }

      .cls-4 {
        fill: #231f20;
        stroke-width: 0px;
      }
    </style>
  </defs>
  <path class="cls-2" d="m188.58,51.24l-186.58.02v-24.63c0-6.6,5.4-12,12-12h162.58c6.6,0,12,5.4,12,12v24.61Z"/>
  <rect class="cls-3" x="2" y="14.4" width="186.58" height="166.42" rx="12" ry="12"/>
  <line class="cls-3" x1=".52" y1="51.04" x2="186.67" y2="51.04"/>
  <line class="cls-3" x1=".52" y1="155.4" x2="186.67" y2="155.4"/>
  <line class="cls-3" x1=".52" y1="129.31" x2="186.67" y2="129.31"/>
  <line class="cls-3" x1=".52" y1="103.22" x2="186.67" y2="103.22"/>
  <line class="cls-3" x1=".52" y1="77.13" x2="186.67" y2="77.13"/>
  <line class="cls-3" x1="54.89" y1="51.6" x2="54.89" y2="183"/>
  <line class="cls-3" x1="81.71" y1="50.5" x2="81.71" y2="181.89"/>
  <line class="cls-3" x1="162.18" y1="50.86" x2="162.18" y2="182.26"/>
  <line class="cls-3" x1="135.36" y1="49.76" x2="135.36" y2="181.15"/>
  <line class="cls-3" x1="28.07" y1="51.6" x2="28.07" y2="183"/>
  <line class="cls-3" x1="108.53" y1="50.5" x2="108.53" y2="181.89"/>
  <path class="cls-1" d="m36.76,25v-4c2.1,0,4.44-3.29,4.44-8s-2.34-8-4.44-8-4.44,3.29-4.44,8h-4c0-6.73,3.71-12,8.44-12s8.44,5.27,8.44,12-3.71,12-8.44,12Z"/>
  <path class="cls-1" d="m98.78,25v-4c2.1,0,4.44-3.29,4.44-8s-2.34-8-4.44-8-4.44,3.29-4.44,8h-4c0-6.73,3.71-12,8.44-12s8.44,5.27,8.44,12-3.71,12-8.44,12Z"/>
  <path class="cls-1" d="m160.8,25v-4c2.1,0,4.44-3.29,4.44-8s-2.34-8-4.44-8-4.44,3.29-4.44,8h-4c0-6.73,3.71-12,8.44-12s8.44,5.27,8.44,12-3.71,12-8.44,12Z"/>
  <rect class="cls-4" x="3.16" y="52.54" width="23.47" height="22.89"/>
  <rect class="cls-4" x="29.79" y="52.54" width="23.47" height="22.89"/>
  <rect class="cls-4" x="56.68" y="52.54" width="23.47" height="22.89"/>
  <rect class="cls-4" x="136.85" y="157.36" width="23.47" height="22.89"/>
  <rect class="cls-4" x="162.64" y="156.2" width="24.32" height="22.89" rx="2.04" ry="2.04"/>
  <path class="cls-1" d="m67.77,25v-4c2.1,0,4.44-3.29,4.44-8s-2.34-8-4.44-8-4.44,3.29-4.44,8h-4c0-6.73,3.71-12,8.44-12s8.44,5.27,8.44,12-3.71,12-8.44,12Z"/>
  <path class="cls-1" d="m129.79,25v-4c2.1,0,4.44-3.29,4.44-8s-2.34-8-4.44-8-4.44,3.29-4.44,8h-4c0-6.73,3.71-12,8.44-12s8.44,5.27,8.44,12-3.71,12-8.44,12Z"/>
</svg>