<?xml version="1.0" encoding="UTF-8"?>
<svg id="Layer_1" data-name="Layer 1" xmlns="http://www.w3.org/2000/svg" viewBox="0 0 300.94 300.94">
  <defs>
    <style>
      .cls-1 {
        stroke-linecap: round;
      }

      .cls-1, .cls-2 {
        fill: none;
        stroke: #000;
        stroke-miterlimit: 10;
      }

      .cls-3 {
        stroke-width: 0px;
      }
    </style>
  </defs>
  <path class="cls-3" d="m119.29,199.85c-3.34,1.46-7.9,4.34-9.25,9.49-.04.16-.07.32-.1.48-.26,1.69-1.4,11.26,5.36,13.35,1.34.41,2.79.05,3.86-.85,1.92-1.63,6.96-4.1,19.29-2.72.19.02.39.03.58.02,2.02-.07,13.95-.76,25.07-7.57.11-.07.22-.13.34-.19,1.89-.9,18.43-8.54,32.8-7.85,1.66.08,3.27-.8,3.97-2.31,1.03-2.19,1.05-5.68-4.81-9.77-.13-.09-.27-.18-.41-.25-1.72-.94-19.33-5.41-38.48,4.78-.51.27-5.1,6.86-16.07,10.08-.32.09-.65.06-.97.15-2.03.57-10.77,2.46-15.92-5.3-1.15-1.73-3.37-2.37-5.28-1.53Z"/>
  <path class="cls-3" d="m142.75,126.67s-2-6.48,3.52-11.12c0,0,19.04-21.6,35.44-14.24,0,0,10.48,7.28,12.8,15.52,0,0-2.4,3.28-6.32-2.24,0,0-7.28-13.36-20.56-4.32,0,0-22.88,17.28-24.88,16.4Z"/>
  <path class="cls-3" d="m78.03,150.27s-4.08-25.6,17.76-24.8c0,0,10.16,3.36,16.96,9.52,0,0,4.08,3.28-19.28-1.28,0,0-14.4-4.52-15.44,16.56Z"/>
  <path class="cls-3" d="m158.1,139.34s-2.14,2.45-.55,6.17c0,0,2.37,3.72,5.62,1.74,0,0,4.19-1.42,2.69-6.41,0,0-3.8-4.59-7.75-1.5Z"/>
  <path class="cls-3" d="m98.2,152.47s-4.59,4.11,1.5,8.62c0,0,2.93.4,4.27-.63,0,0,3.01-3.09.55-6.41,0,0-3.32-3.56-6.33-1.58Z"/>
  <path class="cls-1" d="m153.22,144.67s4.74-12.64,27.46-7.31"/>
  <path class="cls-1" d="m89.01,161.46s9.68-19.36,28.65-5.14"/>
  <path class="cls-1" d="m121.64,185.73s-3.52,21.46,16.01,21.81"/>
  <rect class="cls-2" x=".5" y=".5" width="299.94" height="299.94"/>
</svg>